{
  "accessors": [
    {
      "bufferView": 2,
      "componentType": 5126,
      "count": 10,
      "max": [
        335.5670166015625,
        677.5853881835938,
        120.5
      ],
      "min": [
        -2.4150309562683105,
        -1.9157240390777588,
        16.0
      ],
      "type": "VEC3"
    },
    {
      "bufferView": 0,
      "componentType": 5125,
      "count": 14,
      "type": "SCALAR"
    },
    {
      "bufferView": 2,
      "byteOffset": 120,
      "componentType": 5126,
      "count": 27802,
      "max": [
        338.0448913574219,
        684.0625,
        430.29290771484375
      ],
      "min": [
        -336.875,
        -684.0625,
        4.0
      ],
      "type": "VEC3"
    },
    {
      "bufferView": 2,
      "byteOffset": 333744,
      "componentType": 5126,
      "count": 27802,
      "max": [
        1.0,
        1.0,
        1.0
      ],
      "min": [
        -1.0,
        -1.0,
        -1.0
      ],
      "type": "VEC3"
    },
    {
      "bufferView": 3,
      "componentType": 5126,
      "count": 27802,
      "max": [
        1.0,
        1.0,
        1.0,
        1.0
      ],
      "min": [
        -1.0,
        -1.0,
        -1.0,
        -1.0
      ],
      "type": "VEC4"
    },
    {
      "bufferView": 1,
      "componentType": 5126,
      "count": 27802,
      "max": [
        25.78750991821289,
        19.299989700317383
      ],
      "min": [
        -19.286420822143555,
        -19.299989700317383
      ],
      "type": "VEC2"
    },
    {
      "bufferView": 0,
      "byteOffset": 56,
      "componentType": 5125,
      "count": 52776,
      "type": "SCALAR"
    },
    {
      "bufferView": 2,
      "byteOffset": 667368,
      "componentType": 5126,
      "count": 36,
      "max": [
        334.044921875,
        684.0625,
        20.0
      ],
      "min": [
        -332.875,
        -684.0625,
        16.5
      ],
      "type": "VEC3"
    },
    {
      "bufferView": 2,
      "byteOffset": 667800,
      "componentType": 5126,
      "count": 36,
      "max": [
        1.0,
        1.0,
        0.0
      ],
      "min": [
        -1.0,
        -1.0,
        -1.0
      ],
      "type": "VEC3"
    },
    {
      "bufferView": 0,
      "byteOffset": 211160,
      "componentType": 5125,
      "count": 72,
      "type": "SCALAR"
    },
    {
      "bufferView": 2,
      "byteOffset": 668232,
      "componentType": 5126,
      "count": 224,
      "max": [
        337.7145690917969,
        684.0625,
        297.8367919921875
      ],
      "min": [
        -332.875,
        -684.0625,
        16.0
      ],
      "type": "VEC3"
    },
    {
      "bufferView": 2,
      "byteOffset": 670920,
      "componentType": 5126,
      "count": 224,
      "max": [
        1.0,
        1.0,
        1.0
      ],
      "min": [
        -1.0,
        -1.0,
        -1.0
      ],
      "type": "VEC3"
    },
    {
      "bufferView": 0,
      "byteOffset": 211448,
      "componentType": 5125,
      "count": 750,
      "type": "SCALAR"
    },
    {
      "bufferView": 2,
      "byteOffset": 673608,
      "componentType": 5126,
      "count": 4,
      "max": [
        337.7145690917969,
        4.4375,
        16.0
      ],
      "min": [
        334.0448913574219,
        -4.4375,
        16.0
      ],
      "type": "VEC3"
    },
    {
      "bufferView": 2,
      "byteOffset": 673656,
      "componentType": 5126,
      "count": 4,
      "max": [
        0.0,
        0.0,
        -1.0
      ],
      "min": [
        0.0,
        0.0,
        -1.0
      ],
      "type": "VEC3"
    },
    {
      "bufferView": 0,
      "byteOffset": 214448,
      "componentType": 5125,
      "count": 6,
      "type": "SCALAR"
    },
    {
      "bufferView": 2,
      "byteOffset": 673704,
      "componentType": 5126,
      "count": 40,
      "max": [
        327.044921875,
        677.0625,
        16.0
      ],
      "min": [
        -325.875,
        -677.0625,
        -7.105426934084528e-15
      ],
      "type": "VEC3"
    },
    {
      "bufferView": 2,
      "byteOffset": 674184,
      "componentType": 5126,
      "count": 40,
      "max": [
        1.0,
        1.0,
        0.0
      ],
      "min": [
        -1.0,
        -1.0,
        0.0
      ],
      "type": "VEC3"
    },
    {
      "bufferView": 3,
      "byteOffset": 444832,
      "componentType": 5126,
      "count": 40,
      "max": [
        1.0,
        1.0,
        0.0,
        1.0
      ],
      "min": [
        -1.0,
        -1.0,
        0.0,
        -1.0
      ],
      "type": "VEC4"
    },
    {
      "bufferView": 1,
      "byteOffset": 222416,
      "componentType": 5126,
      "count": 40,
      "max": [
        14.57960033416748,
        0.26599910855293274
      ],
      "min": [
        -7.422130107879639,
        -0.014999999664723873
      ],
      "type": "VEC2"
    },
    {
      "bufferView": 0,
      "byteOffset": 214472,
      "componentType": 5125,
      "count": 72,
      "type": "SCALAR"
    },
    {
      "bufferView": 2,
      "byteOffset": 674664,
      "componentType": 5126,
      "count": 1121,
      "max": [
        326.544921875,
        676.5625,
        4.0
      ],
      "min": [
        -325.375,
        -676.5625,
        0.0
      ],
      "type": "VEC3"
    },
    {
      "bufferView": 2,
      "byteOffset": 688116,
      "componentType": 5126,
      "count": 1121,
      "max": [
        1.0,
        1.0,
        1.0
      ],
      "min": [
        -1.0,
        -1.0,
        -1.0
      ],
      "type": "VEC3"
    },
    {
      "bufferView": 3,
      "byteOffset": 445472,
      "componentType": 5126,
      "count": 1121,
      "max": [
        1.0,
        1.0,
        1.0,
        1.0
      ],
      "min": [
        -1.0,
        -1.0,
        -1.0,
        -1.0
      ],
      "type": "VEC4"
    },
    {
      "bufferView": 1,
      "byteOffset": 222736,
      "componentType": 5126,
      "count": 1121,
      "max": [
        1.662788987159729,
        1.2967890501022339
      ],
      "min": [
        -0.01135758962482214,
        -0.01135758962482214
      ],
      "type": "VEC2"
    },
    {
      "bufferView": 0,
      "byteOffset": 214760,
      "componentType": 5125,
      "count": 1680,
      "type": "SCALAR"
    },
    {
      "bufferView": 2,
      "byteOffset": 701568,
      "componentType": 5126,
      "count": 272,
      "max": [
        338.044921875,
        688.0625,
        434.25750732421875
      ],
      "min": [
        -336.875,
        -688.0625,
        -4.0
      ],
      "type": "VEC3"
    },
    {
      "bufferView": 2,
      "byteOffset": 704832,
      "componentType": 5126,
      "count": 272,
      "max": [
        1.0,
        1.0,
        1.0
      ],
      "min": [
        -1.0,
        -1.0,
        -1.0
      ],
      "type": "VEC3"
    },
    {
      "bufferView": 1,
      "byteOffset": 231704,
      "componentType": 5126,
      "count": 272,
      "max": [
        4.700683116912842,
        3.0739309787750244
      ],
      "min": [
        -8.837964006266235e-16,
        0.0
      ],
      "type": "VEC2"
    },
    {
      "bufferView": 0,
      "byteOffset": 221480,
      "componentType": 5125,
      "count": 792,
      "type": "SCALAR"
    },
    {
      "bufferView": 2,
      "byteOffset": 708096,
      "componentType": 5126,
      "count": 576,
      "max": [
        334.044921875,
        684.0625,
        430.25750732421875
      ],
      "min": [
        -332.875,
        -684.0625,
        4.0
      ],
      "type": "VEC3"
    },
    {
      "bufferView": 2,
      "byteOffset": 715008,
      "componentType": 5126,
      "count": 576,
      "max": [
        1.0,
        1.0,
        1.0
      ],
      "min": [
        -1.0,
        -1.0,
        -1.0
      ],
      "type": "VEC3"
    },
    {
      "bufferView": 3,
      "byteOffset": 463408,
      "componentType": 5126,
      "count": 576,
      "max": [
        1.0,
        1.0,
        1.0034065667241521e-07,
        1.0
      ],
      "min": [
        -7.537761020692596e-16,
        -1.0,
        -1.0846719078472233e-07,
        -1.0
      ],
      "type": "VEC4"
    },
    {
      "bufferView": 1,
      "byteOffset": 233880,
      "componentType": 5126,
      "count": 576,
      "max": [
        2.220982074737549,
        0.987994909286499
      ],
      "min": [
        -2.220982074737549,
        -1.5376590585124313e-14
      ],
      "type": "VEC2"
    },
    {
      "bufferView": 0,
      "byteOffset": 224648,
      "componentType": 5125,
      "count": 1344,
      "type": "SCALAR"
    },
    {
      "bufferView": 2,
      "byteOffset": 721920,
      "componentType": 5126,
      "count": 560,
      "max": [
        40.09121322631836,
        627.375,
        299.10919189453125
      ],
      "min": [
        -58.54779815673828,
        -627.375,
        4.0
      ],
      "type": "VEC3"
    },
    {
      "bufferView": 2,
      "byteOffset": 728640,
      "componentType": 5126,
      "count": 560,
      "max": [
        1.0,
        1.0,
        1.0
      ],
      "min": [
        -1.0,
        -1.0,
        -1.0
      ],
      "type": "VEC3"
    },
    {
      "bufferView": 1,
      "byteOffset": 238488,
      "componentType": 5126,
      "count": 560,
      "max": [
        5.114778995513916,
        0.8862742185592651
      ],
      "min": [
        -0.688194215297699,
        -1.840975046157837
      ],
      "type": "VEC2"
    },
    {
      "bufferView": 0,
      "byteOffset": 230024,
      "componentType": 5125,
      "count": 1032,
      "type": "SCALAR"
    },
    {
      "bufferView": 2,
      "byteOffset": 735360,
      "componentType": 5126,
      "count": 120,
      "max": [
        -54.8825569152832,
        626.4354248046875,
        39.608009338378906
      ],
      "min": [
        -57.58606719970703,
        -626.4354248046875,
        37.03681945800781
      ],
      "type": "VEC3"
    },
    {
      "bufferView": 2,
      "byteOffset": 736800,
      "componentType": 5126,
      "count": 120,
      "max": [
        0.0,
        1.0,
        0.0
      ],
      "min": [
        0.0,
        -1.0,
        0.0
      ],
      "type": "VEC3"
    },
    {
      "bufferView": 0,
      "byteOffset": 234152,
      "componentType": 5125,
      "count": 480,
      "type": "SCALAR"
    },
    {
      "bufferView": 2,
      "byteOffset": 738240,
      "componentType": 5126,
      "count": 256,
      "max": [
        334.0448913574219,
        519.6248779296875,
        104.53919219970703
      ],
      "min": [
        -332.875,
        -519.6245727539063,
        80.46082305908203
      ],
      "type": "VEC3"
    },
    {
      "bufferView": 2,
      "byteOffset": 741312,
      "componentType": 5126,
      "count": 256,
      "max": [
        1.0,
        0.0,
        0.0
      ],
      "min": [
        -1.0,
        0.0,
        0.0
      ],
      "type": "VEC3"
    },
    {
      "bufferView": 1,
      "byteOffset": 242968,
      "componentType": 5126,
      "count": 256,
      "max": [
        0.3875950872898102,
        0.3515740931034088
      ],
      "min": [
        0.0,
        -0.27000001072883606
      ],
      "type": "VEC2"
    },
    {
      "bufferView": 0,
      "byteOffset": 236072,
      "componentType": 5125,
      "count": 384,
      "type": "SCALAR"
    },
    {
      "bufferView": 2,
      "byteOffset": 744384,
      "componentType": 5126,
      "count": 64,
      "max": [
        37.459964752197266,
        236.0854034423828,
        297.8367919921875
      ],
      "min": [
        -36.290035247802734,
        -236.0854034423828,
        296.0867919921875
      ],
      "type": "VEC3"
    },
    {
      "bufferView": 2,
      "byteOffset": 745152,
      "componentType": 5126,
      "count": 64,
      "max": [
        1.0,
        4.2228601015423486e-20,
        1.0
      ],
      "min": [
        -1.0,
        0.0,
        -1.0
      ],
      "type": "VEC3"
    },
    {
      "bufferView": 0,
      "byteOffset": 237608,
      "componentType": 5125,
      "count": 192,
      "type": "SCALAR"
    }
  ],
  "asset": {
    "extras": {
      "author": "jimbogies (https://sketchfab.com/jimbogies)",
      "license": "CC-BY-4.0 (http://creativecommons.org/licenses/by/4.0/)",
      "source": "https://sketchfab.com/3d-models/warehouse-building-b9fb64b2d18f4f4194ae6810b0092880",
      "title": "Warehouse Building"
    },
    "generator": "Sketchfab-14.20.0",
    "version": "2.0"
  },
  "bufferViews": [
    {
      "buffer": 0,
      "byteLength": 238376,
      "name": "floatBufferViews",
      "target": 34963
    },
    {
      "buffer": 0,
      "byteLength": 245016,
      "byteOffset": 238376,
      "byteStride": 8,
      "name": "floatBufferViews",
      "target": 34962
    },
    {
      "buffer": 0,
      "byteLength": 745920,
      "byteOffset": 483392,
      "byteStride": 12,
      "name": "floatBufferViews",
      "target": 34962
    },
    {
      "buffer": 0,
      "byteLength": 472624,
      "byteOffset": 1229312,
      "byteStride": 16,
      "name": "floatBufferViews",
      "target": 34962
    }
  ],
  "buffers": [
    {
      "byteLength": 1701936,
      "uri": "scene.bin"
    }
  ],
  "images": [
    {
      "uri": "textures/Metal21-basecolor_baseColor.jpeg"
    },
    {
      "uri": "textures/Metal21-basecolor_metallicRoughness.png"
    },
    {
      "uri": "textures/Metal21-basecolor_normal.png"
    },
    {
      "uri": "textures/Block_baseColor.jpeg"
    },
    {
      "uri": "textures/Block_metallicRoughness.png"
    },
    {
      "uri": "textures/Block_normal.png"
    },
    {
      "uri": "textures/Cement02_baseColor.jpeg"
    },
    {
      "uri": "textures/Cement02_metallicRoughness.png"
    },
    {
      "uri": "textures/Cement02_normal.png"
    },
    {
      "uri": "textures/blackout_baseColor.jpeg"
    },
    {
      "uri": "textures/SheetMetal_baseColor.jpeg"
    },
    {
      "uri": "textures/SheetMetal_normal.jpeg"
    },
    {
      "uri": "textures/Door1_baseColor.jpeg"
    },
    {
      "uri": "textures/Door1_metallicRoughness.png"
    },
    {
      "uri": "textures/Glass_baseColor.jpeg"
    },
    {
      "uri": "textures/Glass_metallicRoughness.png"
    }
  ],
  "materials": [
    {
      "name": "edge_color000255",
      "pbrMetallicRoughness": {
        "metallicFactor": 0.0,
        "roughnessFactor": 0.6
      }
    },
    {
      "name": "Metal21-basecolor",
      "normalTexture": {
        "index": 2
      },
      "pbrMetallicRoughness": {
        "baseColorTexture": {
          "index": 0
        },
        "metallicRoughnessTexture": {
          "index": 1
        }
      }
    },
    {
      "name": "Color_H08",
      "pbrMetallicRoughness": {
        "baseColorFactor": [
          0.0,
          0.4,
          0.4,
          1.0
        ],
        "metallicFactor": 0.0,
        "roughnessFactor": 0.6
      }
    },
    {
      "name": "material_0",
      "pbrMetallicRoughness": {
        "baseColorFactor": [
          0.643137,
          0.698039,
          0.733333,
          1.0
        ],
        "metallicFactor": 0.0,
        "roughnessFactor": 0.6
      }
    },
    {
      "name": "material",
      "pbrMetallicRoughness": {
        "metallicFactor": 0.0,
        "roughnessFactor": 0.6
      }
    },
    {
      "name": "Block",
      "normalTexture": {
        "index": 5
      },
      "pbrMetallicRoughness": {
        "baseColorTexture": {
          "index": 3
        },
        "metallicFactor": 0.0,
        "metallicRoughnessTexture": {
          "index": 4
        }
      }
    },
    {
      "name": "Cement02",
      "normalTexture": {
        "index": 8
      },
      "pbrMetallicRoughness": {
        "baseColorFactor": [
          0.4678109495190842,
          0.4678109495190842,
          0.4678109495190842,
          1.0
        ],
        "baseColorTexture": {
          "index": 6
        },
        "metallicFactor": 0.0,
        "metallicRoughnessTexture": {
          "index": 7
        },
        "roughnessFactor": 0.7238117297119381
      }
    },
    {
      "name": "blackout",
      "pbrMetallicRoughness": {
        "baseColorTexture": {
          "index": 9
        },
        "metallicFactor": 0.0,
        "roughnessFactor": 0.6
      }
    },
    {
      "name": "SheetMetal",
      "normalTexture": {
        "index": 11
      },
      "pbrMetallicRoughness": {
        "baseColorTexture": {
          "index": 10
        },
        "metallicFactor": 0.7847642964,
        "roughnessFactor": 0.5775255696
      }
    },
    {
      "name": "Door1",
      "pbrMetallicRoughness": {
        "baseColorTexture": {
          "index": 12
        },
        "metallicFactor": 0.626287623,
        "metallicRoughnessTexture": {
          "index": 13
        }
      }
    },
    {
      "name": "Color_L16",
      "pbrMetallicRoughness": {
        "baseColorFactor": [
          0.4,
          0.0,
          0.2,
          1.0
        ],
        "metallicFactor": 0.0,
        "roughnessFactor": 0.6
      }
    },
    {
      "alphaMode": "BLEND",
      "name": "Glass",
      "pbrMetallicRoughness": {
        "baseColorFactor": [
          1.0,
          1.0,
          1.0,
          0.5104777462
        ],
        "baseColorTexture": {
          "index": 14
        },
        "metallicFactor": 0.8640026332,
        "metallicRoughnessTexture": {
          "index": 15
        },
        "roughnessFactor": 0.199619656
      }
    },
    {
      "emissiveFactor": [
        1.0,
        1.0,
        1.0
      ],
      "name": "Light",
      "pbrMetallicRoughness": {
        "baseColorFactor": [
          1.0,
          1.0,
          0.396078,
          1.0
        ],
        "metallicFactor": 0.0,
        "roughnessFactor": 0.6
      }
    }
  ],
  "meshes": [
    {
      "name": "Material2",
      "primitives": [
        {
          "attributes": {
            "POSITION": 0
          },
          "indices": 1,
          "material": 0,
          "mode": 1
        }
      ]
    },
    {
      "name": "Material2",
      "primitives": [
        {
          "attributes": {
            "NORMAL": 3,
            "POSITION": 2,
            "TANGENT": 4,
            "TEXCOORD_0": 5
          },
          "indices": 6,
          "material": 1,
          "mode": 4
        }
      ]
    },
    {
      "name": "Material3",
      "primitives": [
        {
          "attributes": {
            "NORMAL": 8,
            "POSITION": 7
          },
          "indices": 9,
          "material": 2,
          "mode": 4
        }
      ]
    },
    {
      "name": "Material2",
      "primitives": [
        {
          "attributes": {
            "NORMAL": 11,
            "POSITION": 10
          },
          "indices": 12,
          "material": 3,
          "mode": 4
        }
      ]
    },
    {
      "name": "Material2",
      "primitives": [
        {
          "attributes": {
            "NORMAL": 14,
            "POSITION": 13
          },
          "indices": 15,
          "material": 4,
          "mode": 4
        }
      ]
    },
    {
      "name": "Material2",
      "primitives": [
        {
          "attributes": {
            "NORMAL": 17,
            "POSITION": 16,
            "TANGENT": 18,
            "TEXCOORD_0": 19
          },
          "indices": 20,
          "material": 5,
          "mode": 4
        }
      ]
    },
    {
      "name": "Material2",
      "primitives": [
        {
          "attributes": {
            "NORMAL": 22,
            "POSITION": 21,
            "TANGENT": 23,
            "TEXCOORD_0": 24
          },
          "indices": 25,
          "material": 6,
          "mode": 4
        }
      ]
    },
    {
      "name": "Material2",
      "primitives": [
        {
          "attributes": {
            "NORMAL": 27,
            "POSITION": 26,
            "TEXCOORD_0": 28
          },
          "indices": 29,
          "material": 7,
          "mode": 4
        }
      ]
    },
    {
      "name": "Material2",
      "primitives": [
        {
          "attributes": {
            "NORMAL": 31,
            "POSITION": 30,
            "TANGENT": 32,
            "TEXCOORD_0": 33
          },
          "indices": 34,
          "material": 8,
          "mode": 4
        }
      ]
    },
    {
      "name": "Material2",
      "primitives": [
        {
          "attributes": {
            "NORMAL": 36,
            "POSITION": 35,
            "TEXCOORD_0": 37
          },
          "indices": 38,
          "material": 9,
          "mode": 4
        }
      ]
    },
    {
      "name": "Material3",
      "primitives": [
        {
          "attributes": {
            "NORMAL": 40,
            "POSITION": 39
          },
          "indices": 41,
          "material": 10,
          "mode": 4
        }
      ]
    },
    {
      "name": "Material2",
      "primitives": [
        {
          "attributes": {
            "NORMAL": 43,
            "POSITION": 42,
            "TEXCOORD_0": 44
          },
          "indices": 45,
          "material": 11,
          "mode": 4
        }
      ]
    },
    {
      "name": "Material3",
      "primitives": [
        {
          "attributes": {
            "NORMAL": 47,
            "POSITION": 46
          },
          "indices": 48,
          "material": 12,
          "mode": 4
        }
      ]
    }
  ],
  "nodes": [
    {
      "children": [
        1
      ],
      "matrix": [
        1.0,
        0.0,
        0.0,
        0.0,
        0.0,
        2.220446049250313e-16,
        -1.0,
        0.0,
        0.0,
        1.0,
        2.220446049250313e-16,
        0.0,
        0.0,
        0.0,
        0.0,
        1.0
      ],
      "name": "Sketchfab_model"
    },
    {
      "children": [
        2,
        3,
        4,
        5,
        6,
        7,
        8,
        9,
        10,
        11,
        12,
        13,
        14,
        15
      ],
      "name": "Collada visual scene group"
    },
    {
      "mesh": 0,
      "name": "Material2"
    },
    {
      "mesh": 1,
      "name": "Material2"
    },
    {
      "mesh": 2,
      "name": "Material3"
    },
    {
      "mesh": 3,
      "name": "Material2"
    },
    {
      "mesh": 4,
      "name": "Material2"
    },
    {
      "mesh": 5,
      "name": "Material2"
    },
    {
      "mesh": 6,
      "name": "Material2"
    },
    {
      "mesh": 7,
      "name": "Material2"
    },
    {
      "mesh": 8,
      "name": "Material2"
    },
    {
      "mesh": 9,
      "name": "Material2"
    },
    {
      "mesh": 10,
      "name": "Material3"
    },
    {
      "mesh": 11,
      "name": "Material2"
    },
    {
      "mesh": 12,
      "name": "Material3"
    },
    {
      "children": [
        16
      ],
      "name": "SketchUp"
    },
    {
      "children": [
        17
      ],
      "matrix": [
        0.969828,
        0.2437904,
        -1.387779e-17,
        0.0,
        -0.04992172,
        0.1985947,
        0.9788095,
        0.0,
        0.2386244,
        -0.9492767,
        0.2047731,
        0.0,
        466.6289,
        -1594.081,
        385.9625,
        1.0
      ],
      "name": "skp_camera_Last_Saved_SketchUp_View"
    },
    {
      "name": "ID1"
    }
  ],
  "samplers": [
    {
      "magFilter": 9729,
      "minFilter": 9987,
      "wrapS": 10497,
      "wrapT": 10497
    }
  ],
  "scene": 0,
  "scenes": [
    {
      "name": "Sketchfab_Scene",
      "nodes": [
        0
      ]
    }
  ],
  "textures": [
    {
      "sampler": 0,
      "source": 0
    },
    {
      "sampler": 0,
      "source": 1
    },
    {
      "sampler": 0,
      "source": 2
    },
    {
      "sampler": 0,
      "source": 3
    },
    {
      "sampler": 0,
      "source": 4
    },
    {
      "sampler": 0,
      "source": 5
    },
    {
      "sampler": 0,
      "source": 6
    },
    {
      "sampler": 0,
      "source": 7
    },
    {
      "sampler": 0,
      "source": 8
    },
    {
      "sampler": 0,
      "source": 9
    },
    {
      "sampler": 0,
      "source": 10
    },
    {
      "sampler": 0,
      "source": 11
    },
    {
      "sampler": 0,
      "source": 12
    },
    {
      "sampler": 0,
      "source": 13
    },
    {
      "sampler": 0,
      "source": 14
    },
    {
      "sampler": 0,
      "source": 15
    }
  ]
}
