{
  "accessors": [
    {
      "bufferView": 1,
      "componentType": 5126,
      "count": 282,
      "max": [
        7.5,
        2.5,
        14.5
      ],
      "min": [
        0.5,
        -0.5,
        3.5
      ],
      "type": "VEC3"
    },
    {
      "bufferView": 1,
      "byteOffset": 3384,
      "componentType": 5126,
      "count": 282,
      "max": [
        1.0,
        1.0,
        1.0
      ],
      "min": [
        -1.0,
        -1.0,
        -1.0
      ],
      "type": "VEC3"
    },
    {
      "bufferView": 2,
      "componentType": 5126,
      "count": 282,
      "max": [
        1.0,
        1.0,
        1.0,
        1.0
      ],
      "min": [
        1.0,
        1.0,
        1.0,
        1.0
      ],
      "type": "VEC4"
    },
    {
      "bufferView": 0,
      "componentType": 5125,
      "count": 660,
      "type": "SCALAR"
    },
    {
      "bufferView": 1,
      "byteOffset": 6768,
      "componentType": 5126,
      "count": 266,
      "max": [
        9.5,
        2.5,
        13.5
      ],
      "min": [
        1.5,
        -0.5,
        1.5
      ],
      "type": "VEC3"
    },
    {
      "bufferView": 1,
      "byteOffset": 9960,
      "componentType": 5126,
      "count": 266,
      "max": [
        1.0,
        1.0,
        1.0
      ],
      "min": [
        0.0,
        -1.0,
        0.0
      ],
      "type": "VEC3"
    },
    {
      "bufferView": 2,
      "byteOffset": 4512,
      "componentType": 5126,
      "count": 266,
      "max": [
        1.0,
        1.0,
        0.0,
        1.0
      ],
      "min": [
        1.0,
        1.0,
        0.0,
        1.0
      ],
      "type": "VEC4"
    },
    {
      "bufferView": 0,
      "byteOffset": 2640,
      "componentType": 5125,
      "count": 876,
      "type": "SCALAR"
    },
    {
      "bufferView": 1,
      "byteOffset": 13152,
      "componentType": 5126,
      "count": 186,
      "max": [
        10.5,
        2.5,
        13.5
      ],
      "min": [
        3.5,
        -0.5,
        0.5
      ],
      "type": "VEC3"
    },
    {
      "bufferView": 1,
      "byteOffset": 15384,
      "componentType": 5126,
      "count": 186,
      "max": [
        0.0,
        1.0,
        1.0
      ],
      "min": [
        -1.0,
        -1.0,
        -1.0
      ],
      "type": "VEC3"
    },
    {
      "bufferView": 2,
      "byteOffset": 8768,
      "componentType": 5126,
      "count": 186,
      "max": [
        1.0,
        0.6000000238418579,
        0.0,
        1.0
      ],
      "min": [
        1.0,
        0.6000000238418579,
        0.0,
        1.0
      ],
      "type": "VEC4"
    },
    {
      "bufferView": 0,
      "byteOffset": 6144,
      "componentType": 5125,
      "count": 432,
      "type": "SCALAR"
    },
    {
      "bufferView": 1,
      "byteOffset": 17616,
      "componentType": 5126,
      "count": 638,
      "max": [
        11.5,
        2.5,
        15.5
      ],
      "min": [
        -0.5,
        -0.5,
        -0.5
      ],
      "type": "VEC3"
    },
    {
      "bufferView": 1,
      "byteOffset": 25272,
      "componentType": 5126,
      "count": 638,
      "max": [
        1.0,
        1.0,
        1.0
      ],
      "min": [
        -1.0,
        -1.0,
        -1.0
      ],
      "type": "VEC3"
    },
    {
      "bufferView": 2,
      "byteOffset": 11744,
      "componentType": 5126,
      "count": 638,
      "max": [
        0.06666667014360428,
        0.06666667014360428,
        0.06666667014360428,
        1.0
      ],
      "min": [
        0.06666667014360428,
        0.06666667014360428,
        0.06666667014360428,
        1.0
      ],
      "type": "VEC4"
    },
    {
      "bufferView": 0,
      "byteOffset": 7872,
      "componentType": 5125,
      "count": 1752,
      "type": "SCALAR"
    }
  ],
  "asset": {
    "extras": {
      "author": "u n i v e r s e (https://sketchfab.com/universes)",
      "license": "CC-BY-4.0 (http://creativecommons.org/licenses/by/4.0/)",
      "source": "https://sketchfab.com/3d-models/voxel-coin-b09037367ed949b4b4aad5068b080b67",
      "title": "Voxel coin"
    },
    "generator": "Sketchfab-12.67.0",
    "version": "2.0"
  },
  "bufferViews": [
    {
      "buffer": 0,
      "byteLength": 14880,
      "name": "floatBufferViews",
      "target": 34963
    },
    {
      "buffer": 0,
      "byteLength": 32928,
      "byteOffset": 14880,
      "byteStride": 12,
      "name": "floatBufferViews",
      "target": 34962
    },
    {
      "buffer": 0,
      "byteLength": 21952,
      "byteOffset": 47808,
      "byteStride": 16,
      "name": "floatBufferViews",
      "target": 34962
    }
  ],
  "buffers": [
    {
      "byteLength": 69760,
      "uri": "scene.bin"
    }
  ],
  "materials": [
    {
      "doubleSided": true,
      "name": "VoxMaterial_1",
      "pbrMetallicRoughness": {
        "baseColorFactor": [
          0.8,
          0.8,
          0.8,
          1.0
        ],
        "metallicFactor": 0.0,
        "roughnessFactor": 0.6
      }
    },
    {
      "doubleSided": true,
      "name": "VoxMaterial_6",
      "pbrMetallicRoughness": {
        "baseColorFactor": [
          0.8,
          0.8,
          0.8,
          1.0
        ],
        "metallicFactor": 0.0,
        "roughnessFactor": 0.6
      }
    },
    {
      "doubleSided": true,
      "name": "VoxMaterial_18",
      "pbrMetallicRoughness": {
        "baseColorFactor": [
          0.8,
          0.8,
          0.8,
          1.0
        ],
        "metallicFactor": 0.0,
        "roughnessFactor": 0.6
      }
    },
    {
      "doubleSided": true,
      "name": "VoxMaterial_255",
      "pbrMetallicRoughness": {
        "baseColorFactor": [
          0.8,
          0.8,
          0.8,
          1.0
        ],
        "metallicFactor": 0.0,
        "roughnessFactor": 0.6
      }
    }
  ],
  "meshes": [
    {
      "name": "Object_0",
      "primitives": [
        {
          "attributes": {
            "COLOR_0": 2,
            "NORMAL": 1,
            "POSITION": 0
          },
          "indices": 3,
          "material": 0,
          "mode": 4
        }
      ]
    },
    {
      "name": "Object_1",
      "primitives": [
        {
          "attributes": {
            "COLOR_0": 6,
            "NORMAL": 5,
            "POSITION": 4
          },
          "indices": 7,
          "material": 1,
          "mode": 4
        }
      ]
    },
    {
      "name": "Object_2",
      "primitives": [
        {
          "attributes": {
            "COLOR_0": 10,
            "NORMAL": 9,
            "POSITION": 8
          },
          "indices": 11,
          "material": 2,
          "mode": 4
        }
      ]
    },
    {
      "name": "Object_3",
      "primitives": [
        {
          "attributes": {
            "COLOR_0": 14,
            "NORMAL": 13,
            "POSITION": 12
          },
          "indices": 15,
          "material": 3,
          "mode": 4
        }
      ]
    }
  ],
  "nodes": [
    {
      "children": [
        1
      ],
      "matrix": [
        1.0,
        0.0,
        0.0,
        0.0,
        0.0,
        2.220446049250313e-16,
        -1.0,
        0.0,
        0.0,
        1.0,
        2.220446049250313e-16,
        0.0,
        0.0,
        0.0,
        0.0,
        1.0
      ],
      "name": "Sketchfab_model"
    },
    {
      "children": [
        2
      ],
      "name": "VoxRoot"
    },
    {
      "children": [
        3
      ],
      "name": "VoxTransform"
    },
    {
      "children": [
        4
      ],
      "name": "VoxGroup"
    },
    {
      "children": [
        5,
        6,
        7,
        8
      ],
      "matrix": [
        1.0,
        0.0,
        0.0,
        0.0,
        0.0,
        1.0,
        0.0,
        0.0,
        0.0,
        0.0,
        1.0,
        0.0,
        0.0,
        -9.0,
        64.0,
        1.0
      ],
      "name": "VoxTransform"
    },
    {
      "mesh": 0,
      "name": "Object_5"
    },
    {
      "mesh": 1,
      "name": "Object_6"
    },
    {
      "mesh": 2,
      "name": "Object_7"
    },
    {
      "mesh": 3,
      "name": "Object_8"
    }
  ],
  "scene": 0,
  "scenes": [
    {
      "name": "Sketchfab_Scene",
      "nodes": [
        0
      ]
    }
  ]
}
